<svg id="Layer_1" data-name="Layer 1" xmlns="http://www.w3.org/2000/svg" viewBox="0 0 981.2 1151.19"><title>NINJA ICONS_4</title><path d="M628.21,288.41l23.07,4.41c-2.87,19.81-5.66,39.34-8.52,58.86Q625.5,469.4,608.08,587.09c-1.14,7.64.52,12,8.35,14a26.67,26.67,0,0,1,10.86,5.64c3.06,2.71,4.93,6.75,7.33,10.22-3.73,2.11-7.23,5-11.23,6.17-6.84,2-16.17.61-20.4,4.77s-3.27,13.32-4.65,20.29q-14,70.43-28,140.85a45.62,45.62,0,0,0-.36,5.56c8.8-10.16,16.32-20.49,25.49-29.08,28.17-26.4,61.23-39.57,100.42-34.32,15,2,28,8.27,38.4,19.2,22.81,24,29.89,53.35,29.15,87.64-19.73-12.42-38-23.75-56.15-35.39-14.54-9.35-30.25-13.45-47.09-9.46-24.87,5.9-40.82,21.59-45.7,46.9-5,25.92,4.68,46.77,26.16,61.09,29.88,19.91,60.48,38.77,91.09,57.58,6.49,4,8.07,7.86,6.82,15.27-4,23.61-7.11,47.35-10.35,71.08-.91,6.59-1.07,13.28-1.76,22.49l86.87-57c53.9,34,107.42,67.71,160.61,101.89,2.59,1.66,4,8.26,3.09,11.84q-29.64,116.88-60,233.56c-2.43,9.42-4.76,18.86-7.49,28.19-7.79,26.57-25.2,43.51-51.75,51.21a29.83,29.83,0,0,0-4.77,2.37H828.32c-3.47-1.21-6.91-2.49-10.4-3.63-35.37-11.49-56.86-46.84-48.27-83,12.35-52,26.31-103.65,39.57-155.46.91-3.52,1.68-7.08,3-12.61-4.77,2.89-7.87,4.65-10.84,6.6-20.64,13.58-41.53,26.81-61.8,40.91-18.26,12.71-37.38,21.77-60.26,21.08-21.27-.65-42.84,1.25-63.8-1.59-49.38-6.7-80.3-36.81-90.16-84.54-7.06-34.21-7.64-69.76-11.07-104.72-.35-3.54-.44-7.1-2.22-10.79-9.25,36.09-17.64,72.43-27.91,108.23-22,76.54-44.86,152.81-67.57,229.14-2.12,7.11-4.67,14.45-8.75,20.52a52.37,52.37,0,0,1-15.74,15.39c-3.65,2.23-10.55,2-14.39-.09-2.16-1.16-2.41-8.72-1.25-12.74,15.84-54.58,32.7-108.88,48.08-163.58,51.77-184.11,95.23-370.17,129-558.45,4.28-23.86,7.78-47.87,11.64-71.79-8.06-3.66-15.83-6.46-22.77-10.63-3.75-2.25-6.08-6.84-9.06-10.38,4.23-2.51,8.21-6.44,12.73-7.2,7.25-1.22,14.85-.33,23.28-.33,4.56-26.79,9.06-52.83,13.4-78.9Q600.93,401.41,619,291.77a31.24,31.24,0,0,0,.2-3.36Z" transform="translate(-157.4 -288.41)"/><path d="M1138.6,1115.82c-14.14,48.12-41.06,58.46-83.37,31.75q-201.26-127-402.4-254.23c-27.46-17.36-34.46-46.81-16.89-69.83,15.13-19.82,40.29-24.22,63.2-10.16,29.65,18.21,58.93,37,88.35,55.62,105,66.37,209.91,133,315.18,198.91,17.91,11.22,32.63,23.62,35.93,45.69Z" transform="translate(-157.4 -288.41)"/><path d="M791.05,1214.44c-8.57,33.33-16.45,64-24.34,94.67-2.24,8.69-4.11,17.49-6.81,26-12.46,39.52-3.15,72.88,28.69,100.93-1.89.51-3.12,1.14-4.36,1.14-64,0-128,.43-192-.19-34.05-.32-62.11-25-68.91-58.42-6.55-32.16,10.61-66.32,41.43-79.12,10.37-4.31,22.4-6,33.74-6.34,30.91-.84,61.87-.29,93.69-2.6l-33.56-22c26.2-2.58,50.59-.87,71.47-14.5C749.61,1241.28,769.23,1228.61,791.05,1214.44Z" transform="translate(-157.4 -288.41)"/><path d="M200.43,858l3.73-32.53c48.93,1.06,93.21-11.7,133.26-38.33a251.41,251.41,0,0,0,78.64-83.71c-34.3,33-72.43,60.1-117.08,77-45.18,17.12-91.71,23.64-141.58,16.9l6.25-33.71c32,3.43,62.83,1.81,93.14-6.15,61.53-16.17,111.46-50.38,151.37-99.26,26.25-32.15,54.27-62.18,91-82.39,18.56-10.22,38.21-18.43,59.81-28.71-1.66,10.18-2.78,17-3.86,23.68-43.39,4.25-49.28,28.87-26,51.06-33.21,23.4-56.17,55.25-76.52,89.72a355.63,355.63,0,0,1-39.2,54.58c-51.45,58.29-115.63,91.33-194.34,93.54-4.86.14-9.73-.13-14.6-.34C203.41,859.3,202.39,858.68,200.43,858Z" transform="translate(-157.4 -288.41)"/><path d="M633.42,535.37c12.71,0,24.66-.62,36.51.22,8,.56,11.83-2.39,15.6-9.14,25.36-45.38,78.67-71.75,128.74-64.24,55.52,8.33,98.21,47,110.14,99.86a57.59,57.59,0,0,1,.64,5.77c-4.32,0-8.2-.19-12.06,0-34.3,1.93-68.63,3.63-102.88,6.23-5.24.39-10.15,5-15.21,7.73,3.36,5.48,5.53,12.55,10.31,16.14,17.67,13.27,38.91,17.18,60.3,18.46,19.3,1.16,38.72.25,58.18.25,2.84,46.83-58.51,100.87-120.75,104.3-69,3.81-139.88-52.9-135.37-142.12L626.77,582C629,566.61,631.05,551.94,633.42,535.37Z" transform="translate(-157.4 -288.41)"/><path d="M889.62,1437c21.76-16.87,31-37.12,36.37-60,7.45-31.48,16.1-62.68,24.65-95.59,15.44,10.3,30.9,18.44,43.68,29.63,22.81,20,30.53,45.94,21.31,75.17-9.49,30.1-31.26,47.36-62.33,50.44C933.42,1438.61,913.18,1437,889.62,1437Z" transform="translate(-157.4 -288.41)"/><path d="M942.72,951.37c18.75,2.1,33.36,10.77,43.1,27.16Z" transform="translate(-157.4 -288.41)"/></svg>