<svg id="Layer_1" data-name="Layer 1" xmlns="http://www.w3.org/2000/svg" viewBox="0 0 1231.9 1198.16"><defs><style>.cls-1{fill:#fff;}</style></defs><title>NINJA ICONS_2</title><path d="M32.05,1361.11c6-25.27,21.94-43.7,40.23-61.08,60.39-57.35,125.62-108.33,197.08-151.17,3.47-2.07,9.48-3.41,12.72-1.83,64.22,31.35,132.89,41,203.2,40.8,48.38-.15,96.87-1.38,145.08-5.1A342.92,342.92,0,0,0,757,1147.64c3.44-1.71,9.56-1.56,12.82.4,78.64,47.39,150.74,103.27,215,168.91,27.51,28.09,31.28,67.49,11.51,100.82-18.9,31.87-56.73,46.13-95,36.19q-80.16-20.82-160.45-41.17c-10.46-2.65-21.17-4.3-33.53-6.77,3.07-3.32,5.29-5.83,7.62-8.25,48.43-50.36,32.9-130.94-30.93-159.53-56.83-25.45-117.18-31.28-178.51-31.59-69.61-.36-138.28,8.54-206.62,20.78-1.94.35-3.82,1-6.95,1.9.56,4.54,1.13,9.05,1.86,14.9,20.36-3.29,39.59-6.67,58.91-9.47,74-10.74,148.12-17,222.83-8.46,35.61,4.08,70.31,11.79,103,26.77,36.66,16.79,55.8,55.93,46.64,94.41-9.21,38.73-44,65.51-83.67,63.86-7.89-.32-16.32-1.38-23.43-4.53-47.49-21-97.5-21.07-147.69-17.91-107.68,6.76-212.5,29.17-315.52,60.37-64.23,19.46-99.07,2.32-122.89-61.69Z" transform="translate(-32.05 -258.92)"/><path d="M1264,781.25c-39,8.65-77.33,3.13-115.27-6.38-49.47-12.39-94.48-34.81-136.93-62.66-7.3-4.78-14.51-9.69-23.37-12.68,11.34,10.12,22.37,20.62,34.08,30.3,49,40.53,102.55,72.74,165.67,86,14,2.94,28.54,3.65,42.88,4.7,5.81.42,8.59,1.86,9.12,8.13.87,10.31,2.69,20.54,4.6,34.36-17.94-1.2-35-1.08-51.56-3.66-61.52-9.55-115.56-36.7-165.57-72.67-41.53-29.88-78.3-65-111.41-103.87C882.41,643.14,849,603.19,805.33,571.17l37.88-54.79c25.27,21.53,50.54,41.22,73.65,63.17,41.92,39.81,84.34,78.76,134.38,108.44,50.51,30,103.66,52.18,163.19,55.35,12.73.68,25.54.1,39,.1l10.51,33Z" transform="translate(-32.05 -258.92)"/><path d="M689.51,774.67l-13,4.47c7.38,24.79,15.09,49,21.77,73.5,12.09,44.37,8.82,89.89,9,135.11.09,27.06-1.51,29.25-27.11,38.88a289.06,289.06,0,0,1-100,18.32c-53.2.35-106.6-.25-159.57-4.63-25.66-2.13-50.66-13.41-75.72-21.32-8.67-2.74-12.25-9.43-11.88-19.58,1.65-45.16-3.93-90.74,7-135.32,6.95-28.26,15.32-56.17,23.3-85.16l-11.95-4.19a284.84,284.84,0,0,0-27.42,89.66c-5.64,42-8.44,84.46-12.58,126.7-1.67,17.14,6,29.17,19.85,38.24,23.73,15.55,50.64,22,78,25.92,25.27,3.67,50.82,5.46,77.54,8.2-14.5,15.11-23.39,32.58-23.23,53.53s9,38.62,24.59,54c-14.58,0-28,.77-41.23-.13-54.3-3.67-107.42-12.68-156.53-37.82-44.27-22.66-77-55.81-86-106.1-4.1-22.91-2.76-47.07-1.75-70.57,2.83-65.88,11.75-130.84,33.84-193.39,14.15-40.07,33.23-77.33,64.34-107.19,28.33-27.19,61.36-41.7,101.65-41.5a394.61,394.61,0,0,1,91.18,10.79c26.94,6.47,54.08,2.21,80.62-5.72A98.77,98.77,0,0,1,601.12,615c22-.19,44.46-1.83,65.94,1.82,46.08,7.84,77.71,37.81,102.62,75.31,31.18,46.92,47.71,99.75,55.88,154.73,6.94,46.67,11.5,93.88,13.87,141,3.39,67.4-30.13,114.22-88.43,144.76-40.35,21.13-84,31.33-128.93,35.51a850.69,850.69,0,0,1-87.59,3.42c-32.74-.34-55.92-25.66-55-57.32.88-30.07,26.67-53.31,58.85-52.63,45.53,1,90.67-2.19,134.25-16,15-4.74,29-13.09,42.69-21.19,9.86-5.86,14.39-16.31,14-27.81-2.42-68.2-7-136.1-30.95-201C695.85,789,692.8,782.46,689.51,774.67Z" transform="translate(-32.05 -258.92)"/><path d="M675.59,458.31c-2.08,86.7-72.28,155.61-156.72,153.84C432,610.32,362.22,538.85,364.73,454.3c2.55-86.15,72.35-154.52,156.36-153.14C608.07,302.58,677.62,373.33,675.59,458.31ZM522.18,497.48c30.72-.89,62.81-3.49,91.23-20.3,7.44-4.4,11.74-14.09,17.49-21.35-7.27-4-14.13-10-21.88-11.55-43.12-8.7-86.85-8.58-130.48-5.72a404.17,404.17,0,0,0-58.05,8.59c-12.5,2.69-14.34,10.49-5.68,20.05A59.12,59.12,0,0,0,431.9,480C459.82,493.94,490,496.88,522.18,497.48Z" transform="translate(-32.05 -258.92)"/><path d="M736.7,554.21,949.23,258.92l32.27,20.92Q876.58,431.66,772.56,582.17c6,7.86,12.13,14.79,16.84,22.59,2.18,3.62,1.57,8.93,2.23,13.48-4.55.61-9.46,2.62-13.57,1.56-8.39-2.19-16.36-6-24.9-9.34l-13.62,16.86-37.67-22.7,13.88-21.08c-7.37-9.44-14.67-17.95-20.86-27.2-2.08-3.1-3.2-10.18-1.45-11.74,2.86-2.56,8.93-3.74,12.76-2.58C716.08,545,725.48,549.59,736.7,554.21Z" transform="translate(-32.05 -258.92)"/><path d="M685.16,508.69c2.7-19.33,5.23-37.47,8.12-58.21l75.1,24.26-36.66,51Z" transform="translate(-32.05 -258.92)"/><path class="cls-1" d="M522.18,497.48c-32.15-.6-62.36-3.54-90.28-17.45a59.12,59.12,0,0,1-17.09-12.83c-8.66-9.56-6.82-17.36,5.68-20.05a404.17,404.17,0,0,1,58.05-8.59c43.63-2.86,87.36-3,130.48,5.72,7.75,1.57,14.61,7.59,21.88,11.55-5.75,7.26-10,16.95-17.49,21.35C585,494,552.9,496.59,522.18,497.48Z" transform="translate(-32.05 -258.92)"/></svg>