<svg id="Layer_1" data-name="Layer 1" xmlns="http://www.w3.org/2000/svg" viewBox="0 0 1223.5 1121.59"><defs><style>.cls-1{fill:#fff;}</style></defs><title>NINJA ICONS_3</title><path d="M1259.75,735.27c-10.57,19.16-18.06,41.09-32.31,57-40.25,44.85-108,49.68-155.73,14.13-48.36-36-62.31-100.34-33.24-153.26,1.63-3,3.23-6,5.7-10.52-60.13-17.7-120.85-25-183.64-28.32,7-12,10.7-23.34,28.53-18.4,15.52,4.3,21.7-1.83,29.72-21.61,49.87,5.62,98.66,16.77,146.7,31.77,6.23,2,14.78,2.33,20.37-.42,70.24-34.46,147.19-1.8,170.82,73a46.63,46.63,0,0,0,3.08,6.32v3c-5.28.37-10.56.79-15.84,1.11-30.28,1.82-60.59,3.31-90.82,5.73-4.64.37-8.94,4.94-13.4,7.56,2.94,4.83,4.75,11.5,9,14.09,9.07,5.49,19.17,11.62,29.31,12.55,27.11,2.51,54.46,2.41,81.72,3.35Z" transform="translate(-36.25 -303.2)"/><path d="M280.21,1424.8c-27.25-9.89-46.89-26.63-50.47-57.23-2.88-24.59,6.07-44.75,25.54-59.49,47.89-36.24,96.19-71.95,145.81-109,27.09,38.12,65.28,36.08,105.15,29.46,27.13-4.51,54.52-7.47,81.79-11.13l3.3,3.94c-2.87,1.35-6.06,2.26-8.55,4.11q-123.27,91.65-246.54,183.31c-8.89,6.57-19.56,10.73-29.4,16Z" transform="translate(-36.25 -303.2)"/><path d="M1020,303.2l22.06,16.57L884.78,551.39c5,6.9,10.07,12.42,13.42,18.82,4.32,8.25.65,12.55-8.31,10.52-6.6-1.49-12.86-4.49-20.34-7.2-16,21.49-32.24,43.11-48.37,64.77-14.63,19.66-26.79,23.5-51.79,15.51q36-50,71.61-99.54c-6.87-9.82-13.42-19.16-20-28.5l3-5.63,34.07,9.08c52.09-74.07,105.52-150,158.94-226Z" transform="translate(-36.25 -303.2)"/><path class="cls-1" d="M1259.75,732.31c-27.26-.94-54.61-.84-81.72-3.35-10.14-.93-20.24-7.06-29.31-12.55-4.28-2.59-6.09-9.26-9-14.09,4.46-2.62,8.76-7.19,13.4-7.56,30.23-2.42,60.54-3.91,90.82-5.73,5.28-.32,10.56-.74,15.84-1.11Z" transform="translate(-36.25 -303.2)"/><path d="M821,663.55c60.34-28.88,125-21.86,163.31,19.16,28.55,30.6,30.8,65.59,5.54,99-14.88,19.67-34.22,33.44-57.08,43-64.91,27.21-130.23,53.66-189.89,91.76-3.29,2.11-6.5,4.36-11.12,7.47,3.2,4.7,6,9.08,9.08,13.3,31.8,43.89,63.82,87.63,95.43,131.66,34.69,48.3,9.42,102.9-49.84,110.36-101.64,12.8-203.17,26.54-304.71,40.2-30,4-55-3.44-71.74-29.76-15.27-24-14.26-48.65,1.29-72.23,10.24-15.51,25-25.1,43.6-27.64,57.58-7.87,115.2-15.44,172.8-23.15,12.13-1.62,24.24-3.37,38.23-5.33-2.6-4.49-4.14-7.77-6.23-10.66-22.77-31.57-45.7-63-68.41-94.64-6-8.39-11.79-17-17-25.91C544,879.06,550.91,831.72,594.91,792c15.7-14.18,32.39-27.35,49.38-40,4.41-3.29,11.93-4.66,17.52-3.77,68.57,10.88,137,22.67,205.59,33.34,11.83,1.84,25,1.86,36.34-1.32,23.11-6.46,37.42-29.4,36.23-53.34-1.23-24.85-18.81-45.27-44.25-50.58-12.52-2.62-25.25-4.18-37.88-6.32C845.76,667.94,833.71,665.78,821,663.55Z" transform="translate(-36.25 -303.2)"/><path d="M879.54,771.33c-36.82-5.93-77.66-12.42-118.48-19.1Q582.5,723,403.93,693.76c-27.74-4.52-42.66-17.36-44.53-39.34-2.53-29.75,21.45-50.47,52.52-45.36q68.52,11.27,137,22.53Q720.21,659.7,891.47,687.9c23.66,3.94,39,24.37,36.24,46.32C924.89,756.51,906.73,771.83,879.54,771.33Z" transform="translate(-36.25 -303.2)"/><path d="M553.44,922.49,644.92,1052l-132.23,17.55,17.24-66.31-2.23-1c-19.7,21.84-39.16,43.91-59.3,65.35-4.39,4.66-10.81,8.78-17,10.19-32.44,7.41-53.15,26.77-61.56,58.75-1.93,7.34-4.56,12.28-12.38,11-4.43-.69-9.66-2.82-12.23-6.1-1.27-1.61,1.77-8.13,4.4-11,23.78-26.35,48.23-52.09,71.86-78.58,34.78-39,69.07-78.43,103.47-117.76C548.49,930.07,551.29,925.46,553.44,922.49Z" transform="translate(-36.25 -303.2)"/><path d="M812.54,566.86c-12,16.82-22,31.27-32.66,45.21-2,2.61-6.51,4-10.09,4.59-37.9,6-75.72,13-113.85,17.07-15.7,1.67-32.16-2.52-48.15-4.94q-44.29-6.69-88.32-15.48C613.69,582.86,709.85,566.71,812.54,566.86Z" transform="translate(-36.25 -303.2)"/><path d="M48.5,715.49c3.6-11.88,6.3-20.75,8.92-29.41,26.59,3.77,52.23,8.2,78,10.9,72,7.53,143.62,4,215-7.47,5.45-.87,11.78,1.83,17.31,3.9,6.84,2.56,13.05,6.84,19.93,9.2,6.69,2.3,13.89,3.11,20.75,6.22C289.45,737,170.23,742.65,48.5,715.49Z" transform="translate(-36.25 -303.2)"/><path d="M36.25,650.59l10.63-30c98.43,27.24,197.74,30.67,298.91,22.45.64,5.43,1,10.13,1.8,14.77.79,4.81,1.94,9.55,3.43,16.68C244.94,684.46,140.56,680.48,36.25,650.59Z" transform="translate(-36.25 -303.2)"/></svg>