<svg xmlns="http://www.w3.org/2000/svg" viewBox="0 0 666.16 1107.06"><title>NINJA ICONS</title><g id="Layer_2" data-name="Layer 2"><path d="M981.08,911.81c-1,1.84-2.17,3.62-3.06,5.52-9.45,20-30.64,28.56-49.94,18.17Q842,889.14,756.71,841.11c-7-3.92-12.92-12-16.3-19.49-20.49-45.57-40.21-91.5-60-137.4-9.4-21.84-2.06-42.74,17.51-51.32s40,.17,49.63,22c17.68,40.09,34.79,80.44,52.67,120.44a29.61,29.61,0,0,0,11.84,12.86q69.24,38.76,139,76.5c13.16,7.09,24.35,15.37,29.94,29.7Z" transform="translate(-314.92 -310.47)"/><path d="M314.92,631c1.87-6.91,3.73-13.82,5.55-20.52,17.73-.78,35.57-.07,52.94-2.61,55.93-8.17,101.06-36.24,137.21-78.94C532,503.64,553.53,478.59,582.74,462c14.06-8,28.92-14.6,46.39-23.31-3,18.48-5.25,33.62-8.15,48.63-.43,2.22-3.8,4.12-6.13,5.69a184,184,0,0,0-58.57,63.25c-23,40.72-51.62,76.16-92.57,100.21a204.39,204.39,0,0,1-100.18,28.77c-4.26.1-8.53,0-14.33,0,1.12-10,2.08-18.37,3.09-27.35,74.14.45,127.44-34.76,166.55-94.77-57.53,53.73-123.78,82.52-203.92,72.22Z" transform="translate(-314.92 -310.47)"/><path d="M625.15,547.57c13-78.45,26-157,39.32-237.1l25.35,2.82Q672.15,434.2,654.66,553.83c6.54,3.65,12.85,6.48,18.36,10.43,5.33,3.81,4.76,8.25-1.86,10-6.22,1.63-12.73,2.15-19.92,3.29-1,5.22-2.14,10.73-3.32,16.61,18.41-4.08,35.88-8.06,53.41-11.78,4.59-1,9.36-1,14-1.69,48.37-6.54,68.79,24,76,58.28,4.39,20.9,1.11,50-7.56,72.72-9.49-21.79-18.3-42.74-27.7-63.42-10.44-22.93-33.84-33.9-56.43-27-28.48,8.63-41.47,37.5-29.23,66.3,15.88,37.34,32.29,74.45,48.46,111.65,3.46,8,7,15.9,10.3,24,5.36,13.28,13.9,23.38,26.62,30.44,3.4,1.88,6.46,7.43,6.67,11.46,1.42,27.13,1.8,54.31,3.15,81.44.19,3.72,3.28,7.83,6.06,10.8q54.58,58.49,109.58,116.58a74.35,74.35,0,0,1,19.72,37.9q23.1,116.21,46.79,232.28c6.09,30.13-6.12,56.79-31.32,68.28-24.68,11.25-54.25,4-69.72-18.51-5.54-8.09-9.21-18.17-11.23-27.86-14.76-70.94-28.8-142-43.39-213a30.42,30.42,0,0,0-7.19-13.91c-47-50.42-93.33-101.53-141.83-150.48-29.39-29.66-44.34-63.64-45.15-104.75a162.72,162.72,0,0,0-3.71-31.57c-6.75,27.93-12.7,56.08-20.41,83.74q-34.3,122.94-70,245.49c-2.63,9.06-7.94,17.91-14.06,25.12-3.08,3.63-10.77,3.36-16.37,4.84-.12-5-1.56-10.39-.17-14.91q67.51-219.29,115-443.74c2.54-12,4.89-24.14,7.27-36.22.12-.58-.33-1.27-1.52-5.37-14.84,18.88-29.36,35.45-41.72,53.49-26.51,38.67-42.81,82-55.23,127-7,25.32-28.68,37.29-50.44,28.42-15.45-6.29-26.1-23.52-22-39.53,23.6-92.59,63.65-175.78,139.83-237.34,13.46-10.88,29-19.15,43.06-29.35a25.65,25.65,0,0,0,9.25-12.93c2.54-9.34,3.19-19.18,4.62-28.77-7.1-3.62-14-6.76-20.42-10.62-2.13-1.27-4.61-4.65-4.27-6.61s3.86-4.22,6.3-4.67C610,548.91,617.15,548.46,625.15,547.57Z" transform="translate(-314.92 -310.47)"/><path d="M632.42,991.93c22,23.28,42.6,45.11,63.18,67,16.9,18,33.95,35.82,50.41,54.18a26,26,0,0,1,6,14.23c1.37,15.88,1.52,31.87,2.42,47.81.92,16.28-3.68,30.69-13.53,43.63q-66.21,87-132.36,174.1c-20.84,27.28-55.52,32.36-81.79,12.58-25.57-19.24-30-54.23-9.55-81.38q56.91-75.64,114.63-150.67c5.49-7.14,7.42-14,7-22.87-2.65-51.08-4.82-102.18-7.12-153.28C631.58,996.23,631.91,995.19,632.42,991.93Z" transform="translate(-314.92 -310.47)"/><path d="M922.87,491.62c-6,46.62-51.76,84.12-100.65,83.52-59.61-.72-96.58-40.37-103.4-112.3l-37.18,2.54c1.76-12.38,3.41-24.05,5.3-37.34,11.2,0,22-.5,32.67.18,7,.45,10.7-1.66,14.54-7.9,23.07-37.56,57.34-55.21,100.89-49.93,43.09,5.22,71.74,30.39,85.75,71.67,1.23,3.62,1.69,7.5,2.79,12.6-22.32,0-43.29-.47-64.23.2a152.12,152.12,0,0,0-30,4.46c-10.91,2.59-13.05,10.86-3.31,16.11,13.38,7.21,28.27,13.3,43.17,15.58C886.44,493.64,904.4,491.62,922.87,491.62Z" transform="translate(-314.92 -310.47)"/></g></svg>